Coordinates
version=1
nRows=21
nColumns=22
inDegrees=yes

Units are S.I. units (second, meters, Newtons, ...)
If the header above contains a line with 'inDegrees', this indicates whether rotational values are in degrees (yes) or radians (no).

endheader
time	pelvis_tilt	pelvis_list	pelvis_rotation	pelvis_tx	pelvis_ty	pelvis_tz	hip_flexion_r	hip_adduction_r	hip_rotation_r	knee_angle_r	ankle_angle_r	subtalar_angle_r	hip_flexion_l	hip_adduction_l	hip_rotation_l	knee_angle_l	ankle_angle_l	subtalar_angle_l	lumbar_extension	lumbar_bending	lumbar_rotation
      1.92000000	     -4.56186807	     -3.55584769	    100.99406744	     -0.68023848	      1.00586624	      0.15967193	     11.84412269	     -8.88955768	     -7.22113779	    -57.27104694	      5.93121102	      2.04498033	     10.49775152	      2.94787682	     -7.15754488	    -15.09175945	      7.80929997	      4.94490631	     -2.58912382	     -7.83443971	      1.67453469
      1.93000000	     -4.40404031	     -3.41441170	    100.40354923	     -0.68239847	      1.00655643	      0.15280016	     13.20281153	     -8.53805345	     -7.21110699	    -57.79640273	      6.37585583	      1.83256902	      9.83706716	      2.76833236	     -7.71349754	    -14.95221224	      8.17394831	      4.90834440	     -2.82988994	     -7.57150997	      1.18815067
      1.94000000	     -4.23954152	     -3.28808493	     99.84471051	     -0.68442616	      1.00718801	      0.14600071	     14.53393831	     -8.13204839	     -7.23072286	    -58.12215972	      6.77870545	      1.80222813	      9.17565051	      2.59188479	     -8.26193029	    -14.77231508	      8.51475690	      4.89146713	     -3.04938439	     -7.31273934	      0.69748808
      1.95000000	     -4.07329907	     -3.19747209	     99.31956031	     -0.68636477	      1.00773561	      0.13920769	     15.84599297	     -7.70960740	     -7.31872762	    -58.24645347	      7.12614330	      1.93035796	      8.51736640	      2.42892779	     -8.81408537	    -14.52477317	      8.82885526	      4.90172546	     -3.21211237	     -7.06556549	      0.21069418
      1.96000000	     -3.91893180	     -3.12266765	     98.82825104	     -0.68822546	      1.00821149	      0.13244686	     17.11576525	     -7.29473488	     -7.47581274	    -58.18116395	      7.45326846	      2.14706699	      7.84865575	      2.29179737	     -9.34495886	    -14.22920530	      9.12208316	      4.92530505	     -3.35380507	     -6.83838716	     -0.28736705
      1.97000000	     -3.77959103	     -3.06902750	     98.36962132	     -0.69005138	      1.00860597	      0.12568375	     18.34100871	     -6.91426318	     -7.72061206	    -57.92926136	      7.77548999	      2.39231736	      7.16658574	      2.18826163	     -9.84818894	    -13.87273548	      9.39458806	      4.95845650	     -3.46449548	     -6.62723798	     -0.79350331
      1.98000000	     -3.64891633	     -3.03961576	     97.93910228	     -0.69183070	      1.00891354	      0.11890202	     19.52675508	     -6.57546145	     -8.06248647	    -57.50163181	      8.06810004	      2.69708945	      6.47582409	      2.10957585	    -10.34223242	    -13.45481310	      9.65006438	      5.01655831	     -3.53913919	     -6.42928422	     -1.28442600
      1.99000000	     -3.53187175	     -3.02021681	     97.53220896	     -0.69356123	      1.00914918	      0.11210121	     20.65153407	     -6.27969286	     -8.48382538	    -56.90026343	      8.37594074	      2.95292614	      5.76634007	      2.05934648	    -10.80872376	    -12.98657771	      9.88908093	      5.07841465	     -3.59950240	     -6.24439378	     -1.77797032
      2.00000000	     -3.42369854	     -3.00918504	     97.14466868	     -0.69522863	      1.00931117	      0.10528333	     21.71614568	     -6.02224790	     -8.97791854	    -56.13567927	      8.68686170	      3.15934566	      5.04256383	      2.03014499	    -11.25903538	    -12.47493617	     10.11326518	      5.14451451	     -3.64926926	     -6.06698278	     -2.26721836
      2.01000000	     -3.32097592	     -2.99779919	     96.76662295	     -0.69685915	      1.00940904	      0.09840332	     22.70652654	     -5.80546511	     -9.54894082	    -55.21173404	      8.99152324	      3.34901498	      4.29649736	      2.01809384	    -11.69192381	    -11.92897415	     10.32557917	      5.22931340	     -3.68813323	     -5.88564175	     -2.73118091
      2.02000000	     -3.24181984	     -3.02129885	     96.39238595	     -0.69840833	      1.00938117	      0.09147930	     23.66318114	     -5.63571946	    -10.16438882	    -54.14158822	      9.31331707	      3.43704433	      3.56721022	      2.04483565	    -12.09252304	    -11.34897946	     10.48975601	      5.28049779	     -3.68209408	     -5.73703353	     -3.15366646
      2.03000000	     -3.13386301	     -2.96492082	     96.03925112	     -0.69990496	      1.00939807	      0.08450479	     24.45243710	     -5.45067197	    -10.85824855	    -52.90753604	      9.57184696	      3.60256670	      2.75689664	      2.03580378	    -12.49122526	    -10.77206469	     10.70791851	      5.40670544	     -3.76791605	     -5.53436044	     -3.57474612
      2.04000000	     -3.05120362	     -2.93616403	     95.67911676	     -0.70131266	      1.00927609	      0.07746994	     25.20342436	     -5.30263700	    -11.58317224	    -51.54682872	      9.83833854	      3.68687449	      1.96356289	      2.06510299	    -12.85685328	    -10.18142245	     10.87481760	      5.50871943	     -3.81313249	     -5.36597387	     -3.92926943
      2.05000000	     -2.96947072	     -2.89707241	     95.31890594	     -0.70262054	      1.00906344	      0.07038500	     25.87385891	     -5.15190584	    -12.33908480	    -50.05605300	     10.07475120	      3.72722410	      1.16532739	      2.09753014	    -13.21008659	     -9.60760815	     11.03896850	      5.58869721	     -3.86469649	     -5.19520419	     -4.25386489
      2.06000000	     -2.89357882	     -2.84574428	     94.95759059	     -0.70382326	      1.00875530	      0.06325451	     26.46548300	     -4.99988677	    -13.12606075	    -48.44789662	     10.27195088	      3.73562143	      0.36275890	      2.13730332	    -13.55453791	     -9.05656506	     11.20004924	      5.65664749	     -3.92736770	     -5.03085699	     -4.52814200
      2.07000000	     -2.82638870	     -2.78737472	     94.59332365	     -0.70490359	      1.00833745	      0.05608779	     26.98821295	     -4.84051896	    -13.93125076	    -46.73259710	     10.42527587	      3.72708676	     -0.43208681	      2.18579487	    -13.90172263	     -8.54032282	     11.36817570	      5.71025349	     -3.99577522	     -4.87770893	     -4.76010676
      2.08000000	     -2.76666378	     -2.71949542	     94.22416811	     -0.70584074	      1.00780831	      0.04887101	     27.44144570	     -4.66715965	    -14.75448483	    -44.92034330	     10.53396704	      3.72380417	     -1.21859552	      2.23791886	    -14.25614842	     -8.06885017	     11.54928840	      5.75473310	     -4.06900620	     -4.73772389	     -4.94973651
      2.09000000	     -2.71854842	     -2.65033601	     93.86004921	     -0.70665644	      1.00715662	      0.04164246	     27.83922861	     -4.48107292	    -15.57805089	    -43.02341088	     10.59750292	      3.75235840	     -1.98297886	      2.29839801	    -14.62586395	     -7.64241239	     11.75033035	      5.79317878	     -4.14769320	     -4.61192223	     -5.10711198
      2.10000000	     -2.68711810	     -2.58058634	     93.49964290	     -0.70733986	      1.00637914	      0.03437091	     28.18389313	     -4.28776399	    -16.41028623	    -41.05340667	     10.61427885	      3.83532270	     -2.72564355	      2.37064988	    -15.01108921	     -7.26513292	     11.97718366	      5.83101288	     -4.22475108	     -4.51074655	     -5.23258315
      2.11000000	     -2.66683777	     -2.50594399	     93.14819972	     -0.70791252	      1.00548670	      0.02706761	     28.47336825	     -4.08216156	    -17.24576069	    -39.02021351	     10.58909037	      3.98855802	     -3.44613329	      2.44760760	    -15.40443378	     -6.94386080	     12.23060204	      5.87313921	     -4.30684367	     -4.42334980	     -5.33393328
      2.12000000	     -2.66256285	     -2.43558393	     92.81243162	     -0.70839412	      1.00446669	      0.01974153	     28.72358741	     -3.87346853	    -18.08267940	    -36.94150804	     10.52976080	      4.21648814	     -4.13508244	      2.53492847	    -15.80120261	     -6.67504346	     12.50949008	      5.91995501	     -4.38581657	     -4.35511163	     -5.41927951
